<svg width="33" height="34" viewBox="0 0 33 34" fill="none" xmlns="http://www.w3.org/2000/svg">
<path d="M1 18.3239H3.70905L4.66763 16.0662L6.20971 18.9752L7.91849 14.4597L8.87708 18.9752L10.6692 12.0283L12.1696 21.754L13.5867 10.5955L15.1287 24.8367L16.4207 6.55756L17.3376 32.9994L18.838 1L20.3384 22.275L21.0886 18.3239H25.048" stroke="#FF0000" stroke-width="0.399992" stroke-linecap="round"/>
<path d="M4.52159 22.8429C4.83629 23.0677 5.24839 23.2625 5.7579 23.4274C6.2824 23.5922 6.88183 23.6746 7.55618 23.6746C8.33543 23.6746 8.96483 23.5472 9.44437 23.2925C9.92391 23.0228 10.2911 22.6256 10.5458 22.1011C10.8006 21.5617 10.9729 20.8948 11.0628 20.1006C11.1527 19.3063 11.1977 18.3772 11.1977 17.3132V8.88382H12.7712V16.9985C12.7712 18.1974 12.7112 19.2913 12.5913 20.2804C12.4715 21.2694 12.2392 22.1236 11.8945 22.8429C11.5498 23.5622 11.0328 24.1167 10.3435 24.5063C9.65417 24.896 8.74004 25.0908 7.60114 25.0908C6.86684 25.0908 6.21497 25.0083 5.64551 24.8435C5.07606 24.6787 4.55156 24.4314 4.07202 24.1017L4.52159 22.8429Z" fill="white"/>
<path d="M23.2605 11.8734C23.0357 11.6187 22.7735 11.3939 22.4738 11.1991C22.1741 10.9893 21.8369 10.8095 21.4623 10.6596C21.0876 10.5098 20.683 10.3899 20.2484 10.3C19.8288 10.21 19.3793 10.1651 18.8997 10.1651C17.506 10.1651 16.4795 10.4348 15.8202 10.9743C15.1758 11.4988 14.8536 12.2181 14.8536 13.1322C14.8536 13.7616 15.0034 14.2562 15.3032 14.6158C15.6179 14.9755 16.1049 15.2677 16.7643 15.4925C17.4236 15.7173 18.2628 15.9495 19.2818 16.1893C20.4208 16.4291 21.4023 16.7138 22.2265 17.0435C23.0507 17.3732 23.6876 17.8227 24.1372 18.3922C24.5868 18.9467 24.8115 19.7034 24.8115 20.6625C24.8115 21.3968 24.6692 22.0337 24.3844 22.5732C24.0997 23.1127 23.7026 23.5622 23.1931 23.9219C22.6836 24.2815 22.0767 24.5513 21.3723 24.7311C20.668 24.896 19.8963 24.9784 19.0571 24.9784C18.2329 24.9784 17.4386 24.896 16.6743 24.7311C15.9251 24.5513 15.2132 24.2965 14.5389 23.9668C13.8645 23.6222 13.2351 23.1876 12.6507 22.6631L13.4375 21.3818C13.7222 21.6815 14.0594 21.9663 14.449 22.236C14.8536 22.4908 15.2957 22.723 15.7752 22.9328C16.2697 23.1426 16.7942 23.3075 17.3487 23.4274C17.9182 23.5323 18.5026 23.5847 19.102 23.5847C20.3758 23.5847 21.3648 23.3524 22.0692 22.8879C22.7885 22.4233 23.1481 21.734 23.1481 20.8199C23.1481 20.1605 22.9683 19.636 22.6087 19.2464C22.249 18.8418 21.7095 18.5121 20.9902 18.2573C20.2709 18.0026 19.3867 17.7553 18.3378 17.5155C17.2288 17.2608 16.2922 16.9761 15.5279 16.6614C14.7637 16.3467 14.1867 15.9346 13.7971 15.425C13.4225 14.9005 13.2351 14.2112 13.2351 13.357C13.2351 12.368 13.4749 11.5363 13.9545 10.8619C14.449 10.1726 15.1233 9.65558 15.9775 9.31091C16.8317 8.95125 17.8133 8.77143 18.9222 8.77143C19.6265 8.77143 20.2784 8.84635 20.8778 8.99621C21.4922 9.13108 22.0542 9.33339 22.5637 9.60313C23.0882 9.87287 23.5752 10.21 24.0248 10.6147L23.2605 11.8734Z" fill="white"/>
</svg>
