<svg width="9" height="17" viewBox="0 0 9 17" fill="none" xmlns="http://www.w3.org/2000/svg">
<path d="M0.521591 14.3957C0.836289 14.6204 1.24839 14.8153 1.7579 14.9801C2.2824 15.1449 2.88183 15.2274 3.55618 15.2274C4.33543 15.2274 4.96483 15.1 5.44437 14.8452C5.92391 14.5755 6.29106 14.1784 6.54581 13.6539C6.80057 13.1144 6.9729 12.4475 7.06282 11.6533C7.15273 10.8591 7.19769 9.92994 7.19769 8.86596V0.436552H8.77118V8.55127C8.77118 9.75012 8.71123 10.8441 8.59135 11.8331C8.47146 12.8222 8.23919 13.6763 7.89452 14.3957C7.54985 15.115 7.03284 15.6694 6.34351 16.0591C5.65417 16.4487 4.74004 16.6435 3.60114 16.6435C2.86684 16.6435 2.21497 16.5611 1.64551 16.3962C1.07606 16.2314 0.551562 15.9841 0.0720223 15.6545L0.521591 14.3957Z" fill="white"/>
</svg>
