<svg width="272" height="84" viewBox="0 0 272 84" fill="none" xmlns="http://www.w3.org/2000/svg">
<path d="M1 45.6224H8.19592L10.7422 39.8069L14.8383 47.2999L19.3773 35.669L21.9235 47.2999L26.6839 29.4062L30.6693 54.4574L34.4334 25.7157L38.5295 62.3977L41.9614 15.3149L44.397 83.4228L48.3824 1L52.3678 55.7994L54.3605 45.6224H64.8777" stroke="#FF0000" stroke-width="1.03028" stroke-linecap="round"/>
<path d="M8.59766 56.0287C9.40825 56.6077 10.4697 57.1095 11.7821 57.5341C13.1331 57.9587 14.6771 58.171 16.414 58.171C18.4212 58.171 20.0424 57.8429 21.2776 57.1867C22.5127 56.4919 23.4584 55.469 24.1146 54.1181C24.7708 52.7285 25.2147 51.0108 25.4463 48.965C25.6779 46.9193 25.7937 44.5261 25.7937 41.7856V20.0734H29.8466V40.975C29.8466 44.0629 29.6922 46.8807 29.3834 49.4282C29.0746 51.9758 28.4764 54.176 27.5886 56.0287C26.7008 57.8815 25.3691 59.3097 23.5935 60.3133C21.818 61.3169 19.4634 61.8187 16.5298 61.8187C14.6385 61.8187 12.9594 61.6064 11.4926 61.1818C10.0258 60.7572 8.67486 60.1203 7.43968 59.2711L8.59766 56.0287Z" fill="white"/>
<path d="M57.5225 27.774C56.9435 27.1178 56.268 26.5388 55.496 26.037C54.724 25.4966 53.8555 25.0334 52.8905 24.6474C51.9255 24.2614 50.8834 23.9526 49.764 23.721C48.6832 23.4894 47.5252 23.3736 46.29 23.3736C42.7003 23.3736 40.0562 24.0684 38.3579 25.458C36.6981 26.809 35.8682 28.6618 35.8682 31.0163C35.8682 32.6375 36.2542 33.9113 37.0262 34.8377C37.8368 35.764 39.0912 36.5167 40.7896 37.0957C42.488 37.6747 44.6496 38.273 47.2743 38.8906C50.2079 39.5082 52.7361 40.2416 54.8591 41.0908C56.9821 41.94 58.6225 43.0979 59.7805 44.5647C60.9385 45.9929 61.5175 47.9422 61.5175 50.4125C61.5175 52.3039 61.1508 53.9444 60.4174 55.334C59.684 56.7235 58.6611 57.8815 57.3488 58.8079C56.0364 59.7343 54.4731 60.4291 52.6589 60.8923C50.8448 61.3169 48.8569 61.5292 46.6953 61.5292C44.5724 61.5292 42.5266 61.3169 40.558 60.8923C38.6281 60.4291 36.7946 59.7729 35.0576 58.9237C33.3206 58.0359 31.6995 56.9165 30.1941 55.5655L32.2205 52.2653C32.9539 53.0373 33.8224 53.7707 34.826 54.4655C35.8682 55.1217 37.0069 55.7199 38.2421 56.2603C39.5158 56.8007 40.8668 57.2253 42.295 57.5341C43.7618 57.8043 45.2672 57.9394 46.8111 57.9394C50.0921 57.9394 52.6396 57.3411 54.4538 56.1445C56.3066 54.948 57.233 53.1724 57.233 50.8178C57.233 49.1194 56.7698 47.7685 55.8434 46.7649C54.917 45.7227 53.5274 44.8735 51.6747 44.2173C49.8219 43.5611 47.5445 42.9242 44.8426 42.3067C41.9862 41.6505 39.5737 40.9171 37.6052 40.1065C35.6366 39.2959 34.1505 38.2344 33.1469 36.922C32.182 35.5711 31.6995 33.7955 31.6995 31.5953C31.6995 29.0478 32.317 26.9055 33.5522 25.1685C34.826 23.3929 36.563 22.0613 38.7631 21.1735C40.9633 20.2471 43.4916 19.7839 46.3479 19.7839C48.1621 19.7839 49.8412 19.9769 51.3852 20.3629C52.9677 20.7103 54.4152 21.2314 55.7276 21.9262C57.0786 22.6209 58.3331 23.4894 59.491 24.5316L57.5225 27.774Z" fill="white"/>
<path d="M73.6055 62.2333C72.5762 62.2333 71.7013 62.1647 70.9807 62.0275V56.8809C71.5297 57.0181 72.1473 57.0867 72.8335 57.0867C73.9658 57.0867 74.8064 56.8123 75.3553 56.2633C75.9043 55.68 76.1788 54.8051 76.1788 53.6385V26.0013H81.84V53.4841C81.84 56.4348 81.1538 58.6307 79.7814 60.0718C78.4433 61.5128 76.3847 62.2333 73.6055 62.2333ZM94.1223 62.5421C91.3774 62.5421 89.2845 61.7701 87.8435 60.2262C86.4024 58.6479 85.6819 56.4005 85.6819 53.4841V26.0013H91.3431V53.8959C91.3431 55.131 91.5833 56.0231 92.0637 56.5721C92.5783 57.1211 93.2988 57.3955 94.2252 57.3955C95.1516 57.3955 95.855 57.1211 96.3353 56.5721C96.85 56.0231 97.1073 55.131 97.1073 53.8959V26.0013H102.563V53.4841C102.563 56.4005 101.842 58.6479 100.401 60.2262C98.9601 61.7701 96.8671 62.5421 94.1223 62.5421ZM110.869 26.0013H118.537L124.404 62.0275H118.743L117.714 54.8737V54.9766H111.281L110.251 62.0275H105.002L110.869 26.0013ZM117.045 50.0874L114.523 32.2802H114.42L111.95 50.0874H117.045ZM127.151 26.0013H134.253L139.76 47.5656H139.863V26.0013H144.907V62.0275H139.091L132.298 35.7284H132.195V62.0275H127.151V26.0013ZM164.717 62.5421C161.972 62.5421 159.896 61.7701 158.489 60.2262C157.082 58.6479 156.379 56.4005 156.379 53.4841V51.4255H161.732V53.8959C161.732 56.229 162.709 57.3955 164.665 57.3955C165.626 57.3955 166.346 57.1211 166.827 56.5721C167.341 55.9888 167.599 55.0624 167.599 53.7929C167.599 52.2833 167.256 50.9623 166.569 49.8301C165.883 48.6635 164.614 47.2739 162.761 45.6613C160.428 43.6027 158.798 41.7499 157.872 40.103C156.945 38.4218 156.482 36.5347 156.482 34.4418C156.482 31.594 157.203 29.3981 158.644 27.8541C160.085 26.2758 162.178 25.4867 164.922 25.4867C167.633 25.4867 169.674 26.2758 171.047 27.8541C172.454 29.3981 173.157 31.6283 173.157 34.5447V36.0372H167.805V34.1844C167.805 32.9492 167.564 32.0572 167.084 31.5082C166.604 30.9249 165.9 30.6333 164.974 30.6333C163.087 30.6333 162.143 31.7827 162.143 34.0815C162.143 35.3853 162.486 36.6033 163.173 37.7356C163.893 38.8678 165.18 40.2402 167.033 41.8528C169.4 43.9115 171.03 45.7814 171.922 47.4626C172.814 49.1438 173.26 51.1167 173.26 53.3812C173.26 56.3319 172.522 58.5964 171.047 60.1747C169.606 61.753 167.496 62.5421 164.717 62.5421ZM176.506 26.0013H191.946V31.1479H182.167V40.6691H189.938V45.8157H182.167V56.8809H191.946V62.0275H176.506V26.0013ZM195.202 26.0013H203.591C206.508 26.0013 208.635 26.6876 209.973 28.06C211.311 29.3981 211.98 31.4739 211.98 34.2874V36.5004C211.98 40.2402 210.745 42.6077 208.275 43.6027V43.7056C209.647 44.1173 210.608 44.9579 211.157 46.2274C211.74 47.4969 212.032 49.1953 212.032 51.3226V57.6529C212.032 58.6822 212.066 59.5228 212.135 60.1747C212.203 60.7923 212.375 61.4099 212.649 62.0275H206.885C206.679 61.4442 206.542 60.8952 206.474 60.3806C206.405 59.8659 206.371 58.9395 206.371 57.6014V51.0138C206.371 49.3669 206.096 48.2175 205.547 47.5656C205.032 46.9137 204.123 46.5877 202.819 46.5877H200.864V62.0275H195.202V26.0013ZM202.922 41.4411C204.055 41.4411 204.895 41.1495 205.444 40.5662C206.027 39.9829 206.319 39.0051 206.319 37.6326V34.8535C206.319 33.5497 206.079 32.6061 205.599 32.0229C205.153 31.4396 204.432 31.1479 203.437 31.1479H200.864V41.4411H202.922ZM215.96 26.0013H223.062L228.569 47.5656H228.672V26.0013H233.715V62.0275H227.9L221.106 35.7284H221.003V62.0275H215.96V26.0013ZM242.298 26.0013H249.966L255.833 62.0275H250.172L249.143 54.8737V54.9766H242.71L241.68 62.0275H236.431L242.298 26.0013ZM248.474 50.0874L245.952 32.2802H245.849L243.379 50.0874H248.474Z" fill="white"/>
</svg>
